<svg xmlns="http://www.w3.org/2000/svg" version="1.1" xmlns:xlink="http://www.w3.org/1999/xlink" xmlns:svgjs="http://svgjs.dev/svgjs" width="1000" height="343" viewBox="0 0 1000 343"><g transform="matrix(1,0,0,1,-0.6060576630193282,-0.38760221953410223)"><svg viewBox="0 0 396 136" data-background-color="#ffffff" preserveAspectRatio="xMidYMid meet" height="343" width="1000" xmlns="http://www.w3.org/2000/svg" xmlns:xlink="http://www.w3.org/1999/xlink"><g id="tight-bounds" transform="matrix(1,0,0,1,0.2399988345556494,0.15368484506308278)"><svg viewBox="0 0 395.52 135.69263030987383" height="135.69263030987383" width="395.52"><g><svg viewBox="0 0 659.2105631875343 226.15800780483872" height="135.69263030987383" width="395.52"><g transform="matrix(1,0,0,1,263.6905631875342,56.20669957967512)"><svg viewBox="0 0 395.52 113.74460864548848" height="113.74460864548848" width="395.52"><g id="textblocktransform"><svg viewBox="0 0 395.52 113.74460864548848" height="113.74460864548848" width="395.52" id="textblock"><g><svg viewBox="0 0 395.52 79.49252652259332" height="79.49252652259332" width="395.52"><g transform="matrix(1,0,0,1,0,0)"><svg width="395.52" viewBox="2 -35.7400016784668 248.55999755859375 49.95000076293945" height="79.49252652259332" data-palette-color="#ca3433"><g class="undefined-text-0" data-fill-palette-color="primary" id="text-0"><path d="M17.04-35.11L17.04-35.11 19.87-35.69Q20.75-28.81 20.97-16.58 21.19-4.35 21.44-0.39L21.44-0.39Q21 1.12 19.73 1.12L19.73 1.12Q18.85 1.12 18.04 0.39 17.24-0.34 17.04-1.37L17.04-1.37Q17.09-3.13 17.09-7.23L17.09-7.23 17.09-16.85Q16.02-16.8 14.09-16.63 12.16-16.46 10.57-16.36 8.98-16.26 7.57-16.26L7.57-16.26Q6.3-16.26 5.71-16.31L5.71-16.31Q5.81-13.33 6.05-7.89 6.3-2.44 6.4-0.39L6.4-0.39Q5.96 1.12 4.69 1.12L4.69 1.12Q3.81 1.12 3 0.39 2.2-0.34 2-1.37L2-1.37Q2.15-5.57 2.27-17.68 2.39-29.79 2.73-35.69L2.73-35.69 4.93-35.21Q4.93-35.06 4.96-34.74 4.98-34.42 4.98-34.23L4.98-34.23Q5.62-22.22 5.71-19.19L5.71-19.19Q7.37-19.34 9.25-19.51 11.13-19.68 13.4-19.9 15.67-20.12 16.94-20.21L16.94-20.21Q16.99-20.21 16.99-20.7 16.99-21.19 17.02-24.66 17.04-28.13 17.04-35.11ZM45.11-4.74L45.11-4.74 45.6-2.59Q43.45-1.81 39.23-0.85 35.01 0.1 32.96 0.1L32.96 0.1Q30.86 0.1 29.29-1.29 27.73-2.69 26.95-4.86 26.17-7.03 25.8-9.16 25.44-11.28 25.44-13.33L25.44-13.33Q25.44-25.54 36.47-25.54L36.47-25.54Q39.11-25.54 41.11-23.85 43.11-22.17 43.11-19.48L43.11-19.48Q43.11-18.02 42.31-16.89 41.5-15.77 40.35-15.11 39.21-14.45 37.42-13.92 35.64-13.38 34.27-13.13 32.91-12.89 31-12.6 29.1-12.3 28.37-12.16L28.37-12.16Q28.42-10.74 28.54-9.67 28.66-8.59 29.03-7.35 29.39-6.1 30-5.3 30.61-4.49 31.69-3.96 32.76-3.42 34.23-3.42L34.23-3.42Q35.98-3.42 38.52-3.74 41.06-4.05 43.04-4.39 45.02-4.74 45.11-4.74ZM28.56-15.19L28.56-15.19Q35.2-17.09 39.45-19.19L39.45-19.19Q39.11-20.8 38.52-21.53 37.94-22.27 36.77-22.27L36.77-22.27Q33.79-22.27 31.37-20.21 28.95-18.16 28.56-15.19ZM49.31-21.09L49.31-21.09 48.33-23.58Q49.6-24.85 51.56-25.61 53.51-26.37 55.41-26.37L55.41-26.37Q63.67-26.37 63.67-12.11L63.67-12.11Q63.67-10.16 63.45-6.35 63.23-2.54 63.23-0.63L63.23-0.63Q62.84 0.88 61.71 0.88L61.71 0.88Q60.83 0.88 60.1 0 59.37-0.88 59.37-1.95L59.37-1.95Q59.37-2.29 59.42-2.44L59.42-2.44Q56.39 0.49 52.97 0.49L52.97 0.49Q50.39 0.49 48.46-1.39 46.53-3.27 46.53-5.96L46.53-5.96Q46.53-10.5 50.07-14.16 53.61-17.82 58.1-17.82L58.1-17.82Q58.3-17.82 58.49-17.8 58.69-17.77 58.95-17.72 59.22-17.68 59.37-17.68L59.37-17.68Q58.98-23.39 54.83-23.39L54.83-23.39Q52.39-23.39 49.31-21.09ZM59.52-5.81L59.52-5.81Q59.61-9.23 59.61-10.99L59.61-10.99Q59.61-12.45 59.52-15.09L59.52-15.09 59.13-15.09Q55.66-15.04 52.8-12.5 49.95-9.96 49.95-6.35L49.95-6.35Q49.95-4.79 50.9-3.86 51.85-2.93 53.22-2.93L53.22-2.93Q55.37-2.93 59.52-5.81ZM83.73-18.6L83.73-18.6 81.58-18.75Q80.56-21.48 78.12-21.48L78.12-21.48Q77.04-21.48 75.85-21 74.65-20.51 73.87-20 73.09-19.48 71.82-18.51L71.82-18.51Q71.82-17.82 71.79-14.06 71.77-10.3 71.84-5.71 71.92-1.12 72.01-0.78L72.01-0.78Q71.57 0.68 70.31 0.68L70.31 0.68Q69.43 0.68 68.62-0.02 67.81-0.73 67.62-1.76L67.62-1.76Q68.55-17.43 69.28-25.44L69.28-25.44 71.48-24.95 71.62-21.68Q75.04-24.51 77.48-24.51L77.48-24.51Q80.17-24.51 82-23.29 83.83-22.07 83.83-19.73L83.83-19.73Q83.83-18.99 83.73-18.6ZM99.11-23.63L99.11-23.63 99.65-21.44Q98.33-21.34 95.6-20.92 92.86-20.51 91.49-20.41L91.49-20.41Q91.74-18.7 91.79-15.92 91.84-13.13 91.91-11.11 91.98-9.08 92.35-7.06 92.71-5.03 93.86-3.96 95.01-2.88 96.96-2.88L96.96-2.88Q98.43-2.88 100.62-3.56L100.62-3.56Q101.55-1.76 101.99-0.93L101.99-0.93Q98.13 0.44 94.18 0.44L94.18 0.44Q92.71 0.44 91.64-0.44 90.57-1.32 89.98-2.64 89.39-3.96 89.03-5.98 88.66-8.01 88.56-9.81 88.47-11.62 88.47-13.96L88.47-13.96Q88.47-15.23 88.49-17.48 88.52-19.73 88.52-20.56L88.52-20.56Q88.03-20.51 86.22-20.48 84.41-20.46 84.12-20.46L84.12-20.46Q83.78-23.73 83.78-23.83L83.78-23.83Q84.12-23.73 84.9-23.73L84.9-23.73Q85.34-23.73 86.32-23.8 87.29-23.88 87.78-23.88L87.78-23.88Q87.98-23.88 88.3-23.85 88.61-23.83 88.71-23.83L88.71-23.83Q88.91-29.2 89.15-32.57L89.15-32.57 91.35-32.03Q91.4-30.86 91.42-29.52 91.45-28.17 91.47-26.54 91.49-24.9 91.49-24.02L91.49-24.02Q92.76-23.93 95.3-23.83 97.84-23.73 99.11-23.63ZM116.54-21.34L116.54-21.34 116.98-19.09Q115.95-18.95 113.56-18.75 111.17-18.55 110-18.36L110-18.36Q110-5.81 110.29-0.15L110.29-0.15Q109.7 1.76 108.34 1.76L108.34 1.76Q107.7 1.76 107.14 1.22 106.58 0.68 106.38-0.15L106.38-0.15Q106.38-1.61 106.55-8.11 106.73-14.6 106.73-18.16L106.73-18.16 103.01-18.31Q102.92-19.29 102.92-21.58L102.92-21.58Q103.41-21.48 104.77-21.34 106.14-21.19 106.63-21.14L106.63-21.14Q106.77-22.71 106.77-25.59L106.77-25.59Q106.77-31.15 107.7-33.2 108.63-35.25 112.15-35.25L112.15-35.25Q115.91-35.25 118.3-33.84L118.3-33.84 118.01-32.08Q117.37-32.08 116.03-32.2 114.68-32.32 114-32.32L114-32.32Q112-32.32 110.97-31.45 109.95-30.57 109.95-28.08L109.95-28.08Q109.95-27.29 109.97-26.39 110-25.49 110-25.24L110-25.24Q110-23.44 109.95-21.29L109.95-21.29Q110.73-21.29 112.12-21.24 113.51-21.19 114.15-21.19L114.15-21.19Q115.37-21.19 116.54-21.34ZM139.93-4.74L139.93-4.74 140.41-2.59Q138.27-1.81 134.04-0.85 129.82 0.1 127.77 0.1L127.77 0.1Q125.67 0.1 124.11-1.29 122.54-2.69 121.76-4.86 120.98-7.03 120.61-9.16 120.25-11.28 120.25-13.33L120.25-13.33Q120.25-25.54 131.28-25.54L131.28-25.54Q133.92-25.54 135.92-23.85 137.92-22.17 137.92-19.48L137.92-19.48Q137.92-18.02 137.12-16.89 136.31-15.77 135.17-15.11 134.02-14.45 132.24-13.92 130.45-13.38 129.09-13.13 127.72-12.89 125.82-12.6 123.91-12.3 123.18-12.16L123.18-12.16Q123.23-10.74 123.35-9.67 123.47-8.59 123.84-7.35 124.2-6.1 124.81-5.3 125.42-4.49 126.5-3.96 127.57-3.42 129.04-3.42L129.04-3.42Q130.8-3.42 133.33-3.74 135.87-4.05 137.85-4.39 139.83-4.74 139.93-4.74ZM123.37-15.19L123.37-15.19Q130.01-17.09 134.26-19.19L134.26-19.19Q133.92-20.8 133.33-21.53 132.75-22.27 131.58-22.27L131.58-22.27Q128.6-22.27 126.18-20.21 123.76-18.16 123.37-15.19ZM142.37-2.34L143.44-33.5 145.69-33.01 146.76-1.42Q146.32 0.1 145.05 0.1L145.05 0.1Q144.17 0.1 143.37-0.61 142.56-1.32 142.37-2.34L142.37-2.34ZM164.09-23.63L164.09-23.63 164.63-21.44Q163.31-21.34 160.58-20.92 157.84-20.51 156.47-20.41L156.47-20.41Q156.72-18.7 156.77-15.92 156.82-13.13 156.89-11.11 156.96-9.08 157.33-7.06 157.69-5.03 158.84-3.96 159.99-2.88 161.94-2.88L161.94-2.88Q163.41-2.88 165.61-3.56L165.61-3.56Q166.53-1.76 166.97-0.93L166.97-0.93Q163.11 0.44 159.16 0.44L159.16 0.44Q157.69 0.44 156.62-0.44 155.55-1.32 154.96-2.64 154.37-3.96 154.01-5.98 153.64-8.01 153.54-9.81 153.45-11.62 153.45-13.96L153.45-13.96Q153.45-15.23 153.47-17.48 153.5-19.73 153.5-20.56L153.5-20.56Q153.01-20.51 151.2-20.48 149.39-20.46 149.1-20.46L149.1-20.46Q148.76-23.73 148.76-23.83L148.76-23.83Q149.1-23.73 149.88-23.73L149.88-23.73Q150.32-23.73 151.3-23.8 152.27-23.88 152.76-23.88L152.76-23.88Q152.96-23.88 153.28-23.85 153.59-23.83 153.69-23.83L153.69-23.83Q153.89-29.2 154.13-32.57L154.13-32.57 156.33-32.03Q156.38-30.86 156.4-29.52 156.43-28.17 156.45-26.54 156.47-24.9 156.47-24.02L156.47-24.02Q157.74-23.93 160.28-23.83 162.82-23.73 164.09-23.63Z" fill="#ca3433" data-fill-palette-color="primary"></path><path d="M191.63 0.78L191.63 0.78 192.41 2.78Q190.21 2.73 187.82 1.37 185.43 0 183.35-2.08 181.28-4.15 179.64-6.27 178.01-8.4 176.83-10.45L176.83-10.45 172.98-10.89Q173.07-7.32 173.37 0.2L173.37 0.2Q172.93 1.71 171.66 1.71L171.66 1.71Q170.78 1.71 169.97 1 169.17 0.29 168.97-0.73L168.97-0.73Q169.12-4.83 169.29-16.7 169.46-28.56 169.75-35.06L169.75-35.06 171.95-35.64Q171.95-34.08 172-33.89L172-33.89Q174.78-35.74 179.81-35.74L179.81-35.74Q185.23-35.74 187.92-32.35 190.6-28.96 190.6-22.85L190.6-22.85Q190.6-20.61 190.07-18.53 189.53-16.46 188.48-14.65 187.43-12.84 185.57-11.67 183.72-10.5 181.33-10.3L181.33-10.3Q183.03-6.74 185.92-3.37 188.8 0 191.63 0.78ZM172.44-30.62L172.44-30.62 172.83-15.38Q175.51-13.92 179.03-13.92L179.03-13.92Q182.4-13.92 184.74-16.46 187.09-18.99 187.09-22.66L187.09-22.66Q187.09-26.61 184.65-29.79 182.2-32.96 178.54-32.96L178.54-32.96Q175.56-32.96 172.44-30.62ZM209.94-23.54L209.94-23.54 209.45-21.58Q204.71-23.54 202.07-23.54L202.07-23.54Q199.73-23.54 198.78-22.83 197.83-22.12 197.83-19.82L197.83-19.82Q197.83-17.97 199.17-16.75 200.51-15.53 202.42-14.82 204.32-14.11 206.25-13.31 208.18-12.5 209.52-10.94 210.86-9.38 210.86-7.08L210.86-7.08Q210.86-3.96 208.57-1.61 206.27 0.73 202.61 0.78L202.61 0.78Q199.93 0.78 197.58-0.34 195.24-1.46 193.87-3.17L193.87-3.17 195.29-4.64Q195.87-4.39 197.02-3.86 198.17-3.32 198.66-3.15 199.15-2.98 200.1-2.78 201.05-2.59 202.12-2.59L202.12-2.59Q204.42-2.59 205.88-3.61 207.35-4.64 207.35-6.49L207.35-6.49Q207.35-7.71 206.66-8.57 205.98-9.42 204.86-9.96 203.74-10.5 202.39-10.99 201.05-11.47 199.71-12.08 198.36-12.7 197.24-13.55 196.12-14.4 195.43-15.87 194.75-17.33 194.75-19.34L194.75-19.34Q194.75-22.27 196.34-24.24 197.92-26.22 200.81-26.22L200.81-26.22Q201.93-26.22 203.34-25.88 204.76-25.54 205.59-25.24 206.42-24.95 208.06-24.29 209.69-23.63 209.94-23.54ZM227.12-25.1L227.12-25.1 230.39-24.66Q229.47-20.8 227.46-12.92 225.46-5.03 224.34-0.1L224.34-0.1Q222.43 0.24 221.02 0.24L221.02 0.24Q219.85 0.24 218.82 0.05L218.82 0.05Q218.09-2.49 216.5-7.98 214.91-13.48 213.82-17.53 212.72-21.58 211.84-25.29L211.84-25.29 215.06-25.05 221.41-4.74Q222.19-7.08 223.07-10.01 223.95-12.94 224.48-15.01 225.02-17.09 225.9-20.43 226.78-23.78 227.12-25.1ZM232.34 11.77L232.93-25.68 235.66-25.2Q235.66-24.17 235.71-23.68L235.71-23.68Q238.4-25.39 241.13-25.39L241.13-25.39Q245.58-25.39 248.07-21.58 250.56-17.77 250.56-12.94L250.56-12.94Q250.56-10.5 250.19-8.28 249.82-6.05 248.9-3.74 247.97-1.42 246.04-0.02 244.11 1.37 241.38 1.37L241.38 1.37Q238.79 1.37 236.4 0L236.4 0Q236.59 8.54 236.74 12.7L236.74 12.7Q236.3 14.21 235.03 14.21L235.03 14.21Q234.15 14.21 233.34 13.5 232.54 12.79 232.34 11.77L232.34 11.77ZM236.1-20.51L236.1-20.51 236.25-4.74Q236.84-3.56 238.06-2.86 239.28-2.15 240.74-2.15L240.74-2.15Q242.65-2.15 243.99-3.37 245.33-4.59 245.89-6.62 246.45-8.64 246.67-10.4 246.89-12.16 246.89-14.11L246.89-14.11Q246.89-22.41 241.28-22.41L241.28-22.41Q239.47-22.41 237.93-21.9 236.4-21.39 236.1-20.51Z" fill="#ca3433" data-fill-palette-color="primary"></path></g></svg></g></svg></g><g transform="matrix(1,0,0,1,0,98.25880421394106)"><svg viewBox="0 0 232.209792 15.485804431547422" height="15.485804431547422" width="232.209792"><g transform="matrix(1,0,0,1,0,0)"><svg width="232.209792" viewBox="2.049999952316284 -37.599998474121094 751.1600341796875 50.099998474121094" height="15.485804431547422" data-palette-color="#ca3433"><path d="M2.05-28.05L3.1-37.5 7.35-37.5 4.8-28.05 2.05-28.05ZM10-28.05L11.05-37.5 15.3-37.5 12.75-28.05 10-28.05ZM28.1-32.05L33.5-32.8 33.5-21.15 34.8-21.15Q36.3-21.15 37.47-21.83 38.65-22.5 39.47-23.58 40.3-24.65 40.72-26.03 41.15-27.4 41.15-28.75L41.15-28.75Q41.15-29.95 40.77-31.18 40.4-32.4 39.45-33.43 38.5-34.45 36.8-35.08 35.1-35.7 32.5-35.7L32.5-35.7Q30.15-35.7 28.17-35 26.2-34.3 24.75-32.98 23.3-31.65 22.47-29.75 21.65-27.85 21.65-25.45L21.65-25.45Q21.65-23.7 21.85-22.63 22.05-21.55 22.32-20.95 22.6-20.35 22.87-20.08 23.15-19.8 23.3-19.65L23.3-19.65Q22.25-19.65 21.2-19.98 20.15-20.3 19.3-21 18.45-21.7 17.92-22.88 17.4-24.05 17.4-25.7L17.4-25.7Q17.4-28.05 18.6-30.18 19.8-32.3 21.9-33.93 24-35.55 26.8-36.52 29.6-37.5 32.75-37.5L32.75-37.5Q35.75-37.5 38.12-36.9 40.5-36.3 42.15-35.2 43.8-34.1 44.67-32.58 45.55-31.05 45.55-29.25L45.55-29.25Q45.55-28.2 45.25-27.1 44.95-26 44.37-24.9 43.8-23.8 42.95-22.85 42.1-21.9 40.95-21.15L40.95-21.15Q42.8-20.85 43.92-20.1 45.05-19.35 45.65-18.28 46.25-17.2 46.42-15.83 46.6-14.45 46.6-12.95L46.6-12.95Q46.6-12.05 46.55-11 46.5-9.95 46.47-8.93 46.45-7.9 46.4-6.95 46.35-6 46.35-5.25L46.35-5.25Q46.35-3 47.17-1.7 48-0.4 49.2 0L49.2 0Q47.7 0.45 46.75 0.65 45.8 0.85 44.9 0.85L44.9 0.85Q42.65 0.85 41.57-0.6 40.5-2.05 40.5-4.3L40.5-4.3Q40.5-5.25 40.57-6.45 40.65-7.65 40.77-8.88 40.9-10.1 40.97-11.28 41.05-12.45 41.05-13.4L41.05-13.4Q41.05-15.1 40.67-16.28 40.3-17.45 39.67-18.13 39.05-18.8 38.17-19.1 37.3-19.4 36.3-19.4L36.3-19.4Q35.75-19.4 34.92-19.3 34.1-19.2 33.5-19.05L33.5-19.05 33.5 0 28.1 0 28.1-32.05ZM68.3-8.95L70.4-8.95Q68.95-6.95 67.42-5.63 65.9-4.3 64.45-3.3L64.45-3.3Q63.9-2.3 63.05-1.63 62.2-0.95 61.22-0.53 60.25-0.1 59.27 0.1 58.3 0.3 57.5 0.3L57.5 0.3Q55.3 0.3 53.87-0.4 52.45-1.1 51.6-2.18 50.75-3.25 50.4-4.58 50.05-5.9 50.05-7.1L50.05-7.1Q50.05-8.4 50.57-9.38 51.1-10.35 51.85-10.75L51.85-10.75Q53.15-14.5 54.4-18.18 55.65-21.85 56.05-25.55L56.05-25.55 61.1-26.55Q62.3-21.8 63.07-18.8 63.85-15.8 64.32-13.73 64.8-11.65 65.02-10.08 65.25-8.5 65.25-6.6L65.25-6.6Q66.09-7.15 66.84-7.78 67.59-8.4 68.3-8.95L68.3-8.95ZM59.95-6.95L59.95-6.95Q59.95-8.5 59.77-9.7 59.6-10.9 59.25-12.35 58.9-13.8 58.37-15.88 57.85-17.95 57.15-21.2L57.15-21.2Q56.85-18.4 55.92-15.85 55-13.3 54.25-10.6L54.25-10.6Q54.7-10.3 55.02-9.78 55.35-9.25 55.35-8.4L55.35-8.4Q55.35-7.45 54.85-6.95 54.35-6.45 53.75-6.45L53.75-6.45Q52.95-6.45 52.4-7.15L52.4-7.15Q52.8-5.4 53.8-4.42 54.8-3.45 56.45-3.45L56.45-3.45Q58.05-3.45 59-4.28 59.95-5.1 59.95-6.95ZM84.34-16.85L84.34-16.85Q84.34-14 83.87-10.98 83.39-7.95 82.29-5.45 81.19-2.95 79.44-1.33 77.69 0.3 75.09 0.3L75.09 0.3Q73.79 0.3 72.57-0.15 71.34-0.6 70.37-1.45 69.39-2.3 68.82-3.6 68.24-4.9 68.24-6.55L68.24-6.55 68.24-25 73.24-25 73.24-8Q73.24-7.15 73.34-6.35 73.44-5.55 73.77-4.93 74.09-4.3 74.67-3.9 75.24-3.5 76.14-3.5L76.14-3.5Q77.69-3.5 78.74-4.63 79.79-5.75 80.47-7.55 81.14-9.35 81.44-11.58 81.74-13.8 81.74-16L81.74-16Q81.74-17.4 81.64-18.78 81.54-20.15 81.29-21.25L81.29-21.25Q81.04-21 80.64-20.93 80.24-20.85 79.99-20.85L79.99-20.85Q78.79-20.85 78.19-21.7 77.59-22.55 77.59-23.5L77.59-23.5Q77.59-24.5 78.24-25.28 78.89-26.05 80.14-26.05L80.14-26.05Q80.99-26.05 81.77-25.55 82.54-25.05 83.12-23.98 83.69-22.9 84.02-21.15 84.34-19.4 84.34-16.85ZM88.19-26.85L93.24-26.85 93.24-23Q94.19-24 95.47-24.63 96.74-25.25 98.44-25.25L98.44-25.25Q100.19-25.25 101.69-24.5 103.19-23.75 104.32-22.23 105.44-20.7 106.09-18.38 106.74-16.05 106.74-12.85L106.74-12.85Q106.74-6.6 104.39-3.15 102.04 0.3 98.14 0.3L98.14 0.3Q96.49 0.3 95.32-0.33 94.14-0.95 93.24-2.1L93.24-2.1 93.24 11.25 88.19 12.5 88.19-26.85ZM96.69-22L96.69-22Q95.59-22 94.72-21.38 93.84-20.75 93.24-19.6L93.24-19.6 93.24-4.6Q93.94-3.7 94.82-3.3 95.69-2.9 96.54-2.9L96.54-2.9Q97.79-2.9 98.74-3.7 99.69-4.5 100.37-5.88 101.04-7.25 101.39-9.1 101.74-10.95 101.74-13.05L101.74-13.05Q101.74-15.65 101.27-17.38 100.79-19.1 100.04-20.13 99.29-21.15 98.39-21.58 97.49-22 96.69-22ZM140.89 0L135.54 0 131.09-25.7 127.04 0 124.04 0 129.54-35Q126.39-34.3 124.69-31.98 122.99-29.65 122.99-25.45L122.99-25.45Q122.99-23.75 123.21-22.68 123.44-21.6 123.74-20.95 124.04-20.3 124.36-20.03 124.69-19.75 124.84-19.65L124.84-19.65Q122.14-19.65 120.49-21.03 118.84-22.4 118.84-25.35L118.84-25.35Q118.84-27.8 120.04-30.03 121.24-32.25 123.09-33.9 124.94-35.55 127.16-36.52 129.39-37.5 131.49-37.5L131.49-37.5Q132.29-37.5 133.06-37.35 133.84-37.2 134.54-36.8L134.54-36.8 139.54-7.75 145.39-36.8 151.09-36.8 153.89 0 148.19 0 146.19-26.2 140.89 0ZM171.13-25L176.13-25 176.13-8Q176.13-7.5 176.18-6.75 176.23-6 176.46-5.28 176.68-4.55 177.13-4.03 177.58-3.5 178.38-3.5L178.38-3.5Q180.83-3.5 181.98-8.95L181.98-8.95 183.83-8.95Q183.28-5.8 182.43-3.98 181.58-2.15 180.63-1.2 179.68-0.25 178.68 0.03 177.68 0.3 176.88 0.3L176.88 0.3Q175.73 0.3 174.91-0.1 174.08-0.5 173.51-1.15 172.93-1.8 172.58-2.65 172.23-3.5 172.03-4.45L172.03-4.45Q171.28-2.5 169.61-1.1 167.93 0.3 165.53 0.3L165.53 0.3Q164.03 0.3 162.51-0.3 160.98-0.9 159.76-2.27 158.53-3.65 157.76-5.83 156.98-8 156.98-11.15L156.98-11.15Q156.98-13.45 157.51-15.95 158.03-18.45 159.18-20.5 160.33-22.55 162.13-23.9 163.93-25.25 166.48-25.25L166.48-25.25Q167.08-25.25 167.76-25.13 168.43-25 169.06-24.7 169.68-24.4 170.23-23.88 170.78-23.35 171.13-22.6L171.13-22.6 171.13-25ZM166.78-3.5L166.78-3.5Q167.53-3.5 168.31-3.93 169.08-4.35 169.71-5.08 170.33-5.8 170.73-6.8 171.13-7.8 171.13-8.95L171.13-8.95 171.13-20.35Q170.78-21.15 170.06-21.83 169.33-22.5 168.18-22.5L168.18-22.5Q166.58-22.5 165.43-21.43 164.28-20.35 163.58-18.73 162.88-17.1 162.56-15.18 162.23-13.25 162.23-11.5L162.23-11.5Q162.23-7.2 163.41-5.35 164.58-3.5 166.78-3.5ZM195.38-34.3L200.38-35 200.38-8Q200.38-7.5 200.43-6.75 200.48-6 200.71-5.28 200.93-4.55 201.38-4.03 201.83-3.5 202.63-3.5L202.63-3.5Q205.08-3.5 206.23-8.95L206.23-8.95 208.08-8.95Q207.53-5.8 206.68-3.98 205.83-2.15 204.88-1.2 203.93-0.25 202.93 0.03 201.93 0.3 201.13 0.3L201.13 0.3Q199.98 0.3 199.16-0.1 198.33-0.5 197.76-1.15 197.18-1.8 196.83-2.65 196.48-3.5 196.28-4.45L196.28-4.45Q195.53-2.5 193.86-1.1 192.18 0.3 189.78 0.3L189.78 0.3Q188.28 0.3 186.76-0.3 185.23-0.9 184.01-2.27 182.78-3.65 182.01-5.83 181.23-8 181.23-11.15L181.23-11.15Q181.23-13.45 181.76-15.95 182.28-18.45 183.43-20.5 184.58-22.55 186.38-23.9 188.18-25.25 190.73-25.25L190.73-25.25Q191.33-25.25 192.01-25.13 192.68-25 193.31-24.7 193.93-24.4 194.48-23.88 195.03-23.35 195.38-22.6L195.38-22.6 195.38-34.3ZM191.03-3.5L191.03-3.5Q191.78-3.5 192.56-3.93 193.33-4.35 193.96-5.08 194.58-5.8 194.98-6.8 195.38-7.8 195.38-8.95L195.38-8.95 195.38-20.35Q195.03-21.15 194.31-21.83 193.58-22.5 192.43-22.5L192.43-22.5Q190.83-22.5 189.68-21.43 188.53-20.35 187.83-18.73 187.13-17.1 186.81-15.18 186.48-13.25 186.48-11.5L186.48-11.5Q186.48-7.2 187.66-5.35 188.83-3.5 191.03-3.5ZM221.83-18.75L221.83-18.75Q221.83-15.25 218.95-12.9 216.08-10.55 210.98-10L210.98-10Q211.18-8 211.7-6.75 212.23-5.5 212.98-4.78 213.73-4.05 214.7-3.78 215.68-3.5 216.73-3.5L216.73-3.5Q219.13-3.5 221.23-4.75 223.33-6 224.63-8.95L224.63-8.95 226.23-8.95Q225.58-7.1 224.43-5.43 223.28-3.75 221.73-2.48 220.18-1.2 218.38-0.45 216.58 0.3 214.68 0.3L214.68 0.3Q212.93 0.3 211.3-0.3 209.68-0.9 208.43-2.27 207.18-3.65 206.4-5.85 205.63-8.05 205.63-11.25L205.63-11.25Q205.63-13.35 206.1-15.8 206.58-18.25 207.7-20.35 208.83-22.45 210.65-23.85 212.48-25.25 215.18-25.25L215.18-25.25Q216.43-25.25 217.6-24.98 218.78-24.7 219.73-23.98 220.68-23.25 221.25-22 221.83-20.75 221.83-18.75ZM210.93-11.95L210.93-11.95Q214.48-12.5 216.55-14.45 218.63-16.4 218.63-19.25L218.63-19.25Q218.63-21.15 217.98-21.98 217.33-22.8 216.13-22.8L216.13-22.8Q214.83-22.8 213.85-21.8 212.88-20.8 212.23-19.23 211.58-17.65 211.25-15.73 210.93-13.8 210.93-11.95ZM257.82-9L259.07-8.5Q258.37-6.25 257.02-4.5 255.67-2.75 253.87-1.55 252.07-0.35 249.97 0.28 247.87 0.9 245.72 0.9L245.72 0.9Q242.87 0.9 240.85-0.13 238.82-1.15 237.55-2.75 236.27-4.35 235.67-6.38 235.07-8.4 235.07-10.45L235.07-10.45Q235.07-14.15 236.85-16.85 238.62-19.55 241.82-20.85L241.82-20.85Q239.42-22.35 238.37-24.3 237.32-26.25 237.32-28.4L237.32-28.4Q237.32-30.05 237.92-31.7 238.52-33.35 239.77-34.65 241.02-35.95 242.85-36.77 244.67-37.6 247.17-37.6L247.17-37.6Q248.52-37.6 249.9-37.3 251.27-37 252.37-36.27 253.47-35.55 254.15-34.33 254.82-33.1 254.82-31.25L254.82-31.25Q254.82-29.35 254.07-28.25 253.32-27.15 252.07-27.15L252.07-27.15Q250.72-27.15 249.42-28.5L249.42-28.5Q250.12-28.8 250.8-29.73 251.47-30.65 251.47-32.1L251.47-32.1Q251.47-33.05 251.12-33.73 250.77-34.4 250.2-34.85 249.62-35.3 248.92-35.5 248.22-35.7 247.47-35.7L247.47-35.7Q246.12-35.7 245.07-35.1 244.02-34.5 243.32-33.52 242.62-32.55 242.25-31.33 241.87-30.1 241.87-28.85L241.87-28.85Q241.87-28.3 242-27.18 242.12-26.05 242.7-24.83 243.27-23.6 244.4-22.48 245.52-21.35 247.47-20.9L247.47-20.9Q244.17-20.15 242.4-17.53 240.62-14.9 240.62-11.3L240.62-11.3Q240.62-7.7 242.55-5.38 244.47-3.05 248.47-3.05L248.47-3.05Q250.27-3.05 251.8-3.53 253.32-4 254.5-4.83 255.67-5.65 256.52-6.73 257.37-7.8 257.82-9L257.82-9ZM271.12-25L276.12-25 276.12-8Q276.12-7.5 276.17-6.75 276.22-6 276.45-5.28 276.67-4.55 277.12-4.03 277.57-3.5 278.37-3.5L278.37-3.5Q280.82-3.5 281.97-8.95L281.97-8.95 283.82-8.95Q283.27-5.8 282.42-3.98 281.57-2.15 280.62-1.2 279.67-0.25 278.67 0.03 277.67 0.3 276.87 0.3L276.87 0.3Q275.72 0.3 274.9-0.1 274.07-0.5 273.5-1.15 272.92-1.8 272.57-2.65 272.22-3.5 272.02-4.45L272.02-4.45Q271.27-2.5 269.6-1.1 267.92 0.3 265.52 0.3L265.52 0.3Q264.02 0.3 262.5-0.3 260.97-0.9 259.75-2.27 258.52-3.65 257.75-5.83 256.97-8 256.97-11.15L256.97-11.15Q256.97-13.45 257.5-15.95 258.02-18.45 259.17-20.5 260.32-22.55 262.12-23.9 263.92-25.25 266.47-25.25L266.47-25.25Q267.07-25.25 267.75-25.13 268.42-25 269.05-24.7 269.67-24.4 270.22-23.88 270.77-23.35 271.12-22.6L271.12-22.6 271.12-25ZM266.77-3.5L266.77-3.5Q267.52-3.5 268.3-3.93 269.07-4.35 269.7-5.08 270.32-5.8 270.72-6.8 271.12-7.8 271.12-8.95L271.12-8.95 271.12-20.35Q270.77-21.15 270.05-21.83 269.32-22.5 268.17-22.5L268.17-22.5Q266.57-22.5 265.42-21.43 264.27-20.35 263.57-18.73 262.87-17.1 262.55-15.18 262.22-13.25 262.22-11.5L262.22-11.5Q262.22-7.2 263.4-5.35 264.57-3.5 266.77-3.5ZM299.07-8.95L301.17-8.95Q299.72-6.95 298.19-5.63 296.67-4.3 295.22-3.3L295.22-3.3Q294.67-2.3 293.82-1.63 292.97-0.95 291.99-0.53 291.02-0.1 290.04 0.1 289.07 0.3 288.27 0.3L288.27 0.3Q286.07 0.3 284.64-0.4 283.22-1.1 282.37-2.18 281.52-3.25 281.17-4.58 280.82-5.9 280.82-7.1L280.82-7.1Q280.82-8.4 281.34-9.38 281.87-10.35 282.62-10.75L282.62-10.75Q283.92-14.5 285.17-18.18 286.42-21.85 286.82-25.55L286.82-25.55 291.87-26.55Q293.07-21.8 293.84-18.8 294.62-15.8 295.09-13.73 295.57-11.65 295.79-10.08 296.02-8.5 296.02-6.6L296.02-6.6Q296.87-7.15 297.62-7.78 298.37-8.4 299.07-8.95L299.07-8.95ZM290.72-6.95L290.72-6.95Q290.72-8.5 290.54-9.7 290.37-10.9 290.02-12.35 289.67-13.8 289.14-15.88 288.62-17.95 287.92-21.2L287.92-21.2Q287.62-18.4 286.69-15.85 285.77-13.3 285.02-10.6L285.02-10.6Q285.47-10.3 285.79-9.78 286.12-9.25 286.12-8.4L286.12-8.4Q286.12-7.45 285.62-6.95 285.12-6.45 284.52-6.45L284.52-6.45Q283.72-6.45 283.17-7.15L283.17-7.15Q283.57-5.4 284.57-4.42 285.57-3.45 287.22-3.45L287.22-3.45Q288.82-3.45 289.77-4.28 290.72-5.1 290.72-6.95ZM310.92-25L315.92-25 315.92-1.05Q317.17-1.45 318.14-1.95 319.12-2.45 319.84-3.3 320.57-4.15 321.04-5.5 321.52-6.85 321.77-8.95L321.77-8.95 323.62-8.95Q323.22-6.3 322.59-4.63 321.97-2.95 321.04-1.93 320.12-0.9 318.84-0.33 317.57 0.25 315.92 0.75L315.92 0.75 315.92 3.95Q315.92 6.3 315.42 7.93 314.92 9.55 314.04 10.58 313.17 11.6 312.04 12.05 310.92 12.5 309.67 12.5L309.67 12.5Q307.17 12.5 305.77 11.08 304.37 9.65 304.37 7.6L304.37 7.6Q304.37 6.3 304.94 5.25 305.52 4.2 306.44 3.33 307.37 2.45 308.54 1.78 309.72 1.1 310.92 0.6L310.92 0.6 310.92-2.55Q309.92-1.1 308.64-0.4 307.37 0.3 306.07 0.3L306.07 0.3Q304.62 0.3 303.32-0.1 302.02-0.5 301.07-1.43 300.12-2.35 299.57-3.83 299.02-5.3 299.02-7.45L299.02-7.45 299.02-25 304.02-25 304.02-8Q304.02-5.55 304.87-4.53 305.72-3.5 307.02-3.5L307.02-3.5Q307.72-3.5 308.42-3.85 309.12-4.2 309.67-4.88 310.22-5.55 310.57-6.5 310.92-7.45 310.92-8.7L310.92-8.7 310.92-25ZM308.72 9.9L308.72 9.9Q310.07 9.9 310.49 8.88 310.92 7.85 310.92 6.1L310.92 6.1 310.92 2.6Q308.42 3.75 307.37 4.88 306.32 6 306.32 7.4L306.32 7.4Q306.32 8.55 306.94 9.22 307.57 9.9 308.72 9.9ZM354.11-32.3L354.11-32.3Q352.51-32.3 350.84-32.58 349.16-32.85 347.46-33.2L347.46-33.2 347.46-21.75 354.86-21.75 354.86-18.8 347.46-18.8 347.46 0 342.06 0 342.06-34.1Q341.81-34.15 341.59-34.15 341.36-34.15 341.11-34.15L341.11-34.15Q339.81-34.15 338.66-33.8 337.51-33.45 336.69-32.6 335.86-31.75 335.39-30.33 334.91-28.9 334.91-26.75L334.91-26.75Q334.91-24.05 335.59-22.23 336.26-20.4 337.16-19.65L337.16-19.65Q331.21-19.65 331.21-26.2L331.21-26.2Q331.21-28.6 332.01-30.65 332.81-32.7 334.51-34.23 336.21-35.75 338.84-36.63 341.46-37.5 345.11-37.5L345.11-37.5Q346.36-37.5 347.49-37.4 348.61-37.3 349.66-37.2 350.71-37.1 351.81-37 352.91-36.9 354.16-36.9L354.16-36.9Q355.41-36.9 356.51-37.02 357.61-37.15 358.61-37.5L358.61-37.5Q358.51-35.75 358.14-34.73 357.76-33.7 357.16-33.18 356.56-32.65 355.79-32.48 355.01-32.3 354.11-32.3ZM366.96-25.25L366.96-25.25Q368.91-25.25 370.31-24.65 371.71-24.05 372.61-22.98 373.51-21.9 374.03-20.45 374.56-19 374.81-17.35L374.81-17.35 375.11-17.35Q377.21-17.35 378.96-18.2 380.71-19.05 381.96-20.35L381.96-20.35 382.71-19Q381.71-17.4 379.53-16.35 377.36-15.3 375.06-14.9L375.06-14.9Q375.06-14.4 375.08-13.9 375.11-13.4 375.11-12.85L375.11-12.85Q375.11-6.7 372.86-3.2 370.61 0.3 366.56 0.3L366.56 0.3Q364.91 0.3 363.23-0.3 361.56-0.9 360.21-2.3 358.86-3.7 358.03-5.9 357.21-8.1 357.21-11.35L357.21-11.35Q357.21-13.55 357.68-16 358.16-18.45 359.28-20.5 360.41-22.55 362.28-23.9 364.16-25.25 366.96-25.25ZM367.46-3.5L367.46-3.5Q370.11-3.5 371.36-6.13 372.61-8.75 372.61-13.55L372.61-13.55Q372.61-13.85 372.61-14.15 372.61-14.45 372.56-14.75L372.56-14.75Q371.11-14.85 370.48-15.4 369.86-15.95 369.86-17.25L369.86-17.25Q369.86-18.4 370.36-18.88 370.86-19.35 371.86-19.4L371.86-19.4Q371.26-21.15 370.33-21.83 369.41-22.5 368.26-22.5L368.26-22.5Q366.71-22.5 365.63-21.48 364.56-20.45 363.88-18.85 363.21-17.25 362.91-15.33 362.61-13.4 362.61-11.55L362.61-11.55Q362.61-9.1 363.06-7.55 363.51-6 364.21-5.1 364.91-4.2 365.76-3.85 366.61-3.5 367.46-3.5ZM378.75-25L383.75-25 383.75-20.8Q384.35-21.7 384.93-22.5 385.5-23.3 386.2-23.9 386.9-24.5 387.75-24.88 388.6-25.25 389.65-25.25L389.65-25.25Q391.35-25.25 392.15-24.38 392.95-23.5 392.95-22.25L392.95-22.25Q392.95-21.5 392.7-21 392.45-20.5 392.1-20.2 391.75-19.9 391.35-19.78 390.95-19.65 390.65-19.65L390.65-19.65Q390.2-19.65 389.93-19.85 389.65-20.05 389.38-20.28 389.1-20.5 388.75-20.7 388.4-20.9 387.85-20.9L387.85-20.9Q386.7-20.9 385.65-20.1 384.6-19.3 383.75-18.4L383.75-18.4 383.75 0 378.75 0 378.75-25ZM427.3 0L421.9 0 421.9-15.4 414.05-35.7Q412.3-35.25 411.18-34.27 410.05-33.3 409.35-32.05 408.65-30.8 408.38-29.35 408.1-27.9 408.1-26.5L408.1-26.5Q408.1-22.55 410.6-19.65L410.6-19.65Q407.95-19.65 406.48-21.15 405-22.65 405-26.2L405-26.2Q405-28.5 405.82-30.55 406.65-32.6 408.2-34.15 409.75-35.7 411.98-36.6 414.2-37.5 416.95-37.5L416.95-37.5Q417.5-37.5 418-37.48 418.5-37.45 419-37.4L419-37.4 426.25-18.2 432.7-37.25 435.3-37.25 427.3-15.4 427.3 0ZM443.4-25.25L443.4-25.25Q445.35-25.25 446.75-24.65 448.15-24.05 449.05-22.98 449.95-21.9 450.47-20.45 451-19 451.25-17.35L451.25-17.35 451.55-17.35Q453.65-17.35 455.4-18.2 457.15-19.05 458.4-20.35L458.4-20.35 459.15-19Q458.15-17.4 455.97-16.35 453.8-15.3 451.5-14.9L451.5-14.9Q451.5-14.4 451.52-13.9 451.55-13.4 451.55-12.85L451.55-12.85Q451.55-6.7 449.3-3.2 447.05 0.3 443 0.3L443 0.3Q441.35 0.3 439.67-0.3 438-0.9 436.65-2.3 435.3-3.7 434.47-5.9 433.65-8.1 433.65-11.35L433.65-11.35Q433.65-13.55 434.12-16 434.6-18.45 435.72-20.5 436.85-22.55 438.72-23.9 440.6-25.25 443.4-25.25ZM443.9-3.5L443.9-3.5Q446.55-3.5 447.8-6.13 449.05-8.75 449.05-13.55L449.05-13.55Q449.05-13.85 449.05-14.15 449.05-14.45 449-14.75L449-14.75Q447.55-14.85 446.92-15.4 446.3-15.95 446.3-17.25L446.3-17.25Q446.3-18.4 446.8-18.88 447.3-19.35 448.3-19.4L448.3-19.4Q447.7-21.15 446.77-21.83 445.85-22.5 444.7-22.5L444.7-22.5Q443.15-22.5 442.07-21.48 441-20.45 440.32-18.85 439.65-17.25 439.35-15.33 439.05-13.4 439.05-11.55L439.05-11.55Q439.05-9.1 439.5-7.55 439.95-6 440.65-5.1 441.35-4.2 442.2-3.85 443.05-3.5 443.9-3.5ZM467.09-25L472.09-25 472.09-8Q472.09-7.5 472.14-6.75 472.19-6 472.42-5.28 472.64-4.55 473.09-4.03 473.54-3.5 474.34-3.5L474.34-3.5Q476.79-3.5 477.94-8.95L477.94-8.95 479.79-8.95Q479.25-5.8 478.39-3.98 477.54-2.15 476.59-1.2 475.64-0.25 474.64 0.03 473.64 0.3 472.84 0.3L472.84 0.3Q471.69 0.3 470.87-0.1 470.04-0.5 469.47-1.15 468.89-1.8 468.54-2.65 468.19-3.5 468-4.4L468-4.4Q467.04-1.95 465.5-0.83 463.94 0.3 462.25 0.3L462.25 0.3Q460.79 0.3 459.5-0.1 458.19-0.5 457.25-1.43 456.29-2.35 455.75-3.83 455.19-5.3 455.19-7.45L455.19-7.45 455.19-25 460.19-25 460.19-8Q460.19-5.55 461.04-4.53 461.89-3.5 463.19-3.5L463.19-3.5Q463.89-3.5 464.59-3.88 465.29-4.25 465.84-4.95 466.39-5.65 466.75-6.65 467.09-7.65 467.09-8.95L467.09-8.95 467.09-25ZM477.89-25L482.89-25 482.89-20.8Q483.49-21.7 484.07-22.5 484.64-23.3 485.34-23.9 486.04-24.5 486.89-24.88 487.74-25.25 488.79-25.25L488.79-25.25Q490.49-25.25 491.29-24.38 492.09-23.5 492.09-22.25L492.09-22.25Q492.09-21.5 491.84-21 491.59-20.5 491.24-20.2 490.89-19.9 490.49-19.78 490.09-19.65 489.79-19.65L489.79-19.65Q489.34-19.65 489.07-19.85 488.79-20.05 488.52-20.28 488.24-20.5 487.89-20.7 487.54-20.9 486.99-20.9L486.99-20.9Q485.84-20.9 484.79-20.1 483.74-19.3 482.89-18.4L482.89-18.4 482.89 0 477.89 0 477.89-25ZM525.14-30.6L525.14-30.6Q525.14-28.6 524.31-27.5 523.49-26.4 522.14-26.4L522.14-26.4Q521.44-26.4 520.96-26.65 520.49-26.9 519.99-27.45L519.99-27.45Q520.69-27.95 521.06-28.9 521.44-29.85 521.44-30.9L521.44-30.9Q521.44-31.75 521.16-32.6 520.89-33.45 520.29-34.13 519.69-34.8 518.79-35.23 517.89-35.65 516.64-35.65L516.64-35.65Q515.34-35.65 514.31-35.18 513.29-34.7 512.61-33.88 511.94-33.05 511.59-31.95 511.24-30.85 511.24-29.6L511.24-29.6Q511.24-27.2 512.41-25.75 513.59-24.3 515.34-23.3 517.09-22.3 519.16-21.4 521.24-20.5 522.99-19.18 524.74-17.85 525.91-15.83 527.09-13.8 527.09-10.45L527.09-10.45Q527.09-7.45 526.09-5.33 525.09-3.2 523.46-1.9 521.84-0.6 519.74 0 517.64 0.6 515.44 0.6L515.44 0.6Q513.49 0.6 511.59 0.15 509.69-0.3 508.19-1.28 506.69-2.25 505.76-3.78 504.84-5.3 504.84-7.45L504.84-7.45Q504.84-8.7 505.19-10 505.54-11.3 506.21-12.35 506.89-13.4 507.91-14.08 508.94-14.75 510.29-14.75L510.29-14.75Q511.39-14.75 512.16-14.15 512.94-13.55 513.54-11.9L513.54-11.9Q512.34-11.85 511.56-11.4 510.79-10.95 510.34-10.3 509.89-9.65 509.71-8.9 509.54-8.15 509.54-7.5L509.54-7.5Q509.54-6.15 510.14-5.15 510.74-4.15 511.66-3.48 512.59-2.8 513.66-2.48 514.74-2.15 515.74-2.15L515.74-2.15Q518.04-2.15 519.54-3.9 521.04-5.65 521.04-8.95L521.04-8.95Q521.04-11.75 519.96-13.38 518.89-15 517.24-16.1 515.59-17.2 513.71-18 511.84-18.8 510.19-19.9 508.54-21 507.46-22.73 506.39-24.45 506.39-27.35L506.39-27.35Q506.39-29.85 507.24-31.75 508.09-33.65 509.46-34.93 510.84-36.2 512.66-36.83 514.49-37.45 516.44-37.45L516.44-37.45Q517.29-37.45 518.76-37.25 520.24-37.05 521.66-36.35 523.09-35.65 524.11-34.27 525.14-32.9 525.14-30.6ZM530.08-26.85L535.13-26.85 535.13-23Q536.08-24 537.36-24.63 538.63-25.25 540.33-25.25L540.33-25.25Q542.08-25.25 543.58-24.5 545.08-23.75 546.21-22.23 547.33-20.7 547.99-18.38 548.63-16.05 548.63-12.85L548.63-12.85Q548.63-6.6 546.28-3.15 543.93 0.3 540.03 0.3L540.03 0.3Q538.38 0.3 537.21-0.33 536.03-0.95 535.13-2.1L535.13-2.1 535.13 11.25 530.08 12.5 530.08-26.85ZM538.58-22L538.58-22Q537.49-22 536.61-21.38 535.74-20.75 535.13-19.6L535.13-19.6 535.13-4.6Q535.83-3.7 536.71-3.3 537.58-2.9 538.43-2.9L538.43-2.9Q539.68-2.9 540.63-3.7 541.58-4.5 542.26-5.88 542.93-7.25 543.28-9.1 543.63-10.95 543.63-13.05L543.63-13.05Q543.63-15.65 543.16-17.38 542.68-19.1 541.93-20.13 541.18-21.15 540.28-21.58 539.38-22 538.58-22ZM566.88-18.75L566.88-18.75Q566.88-15.25 564.01-12.9 561.13-10.55 556.03-10L556.03-10Q556.23-8 556.76-6.75 557.28-5.5 558.03-4.78 558.78-4.05 559.76-3.78 560.73-3.5 561.78-3.5L561.78-3.5Q564.18-3.5 566.28-4.75 568.38-6 569.68-8.95L569.68-8.95 571.28-8.95Q570.63-7.1 569.48-5.43 568.33-3.75 566.78-2.48 565.23-1.2 563.43-0.45 561.63 0.3 559.73 0.3L559.73 0.3Q557.98 0.3 556.36-0.3 554.73-0.9 553.48-2.27 552.23-3.65 551.46-5.85 550.68-8.05 550.68-11.25L550.68-11.25Q550.68-13.35 551.16-15.8 551.63-18.25 552.76-20.35 553.88-22.45 555.71-23.85 557.53-25.25 560.23-25.25L560.23-25.25Q561.48-25.25 562.66-24.98 563.83-24.7 564.78-23.98 565.73-23.25 566.31-22 566.88-20.75 566.88-18.75ZM555.98-11.95L555.98-11.95Q559.53-12.5 561.61-14.45 563.68-16.4 563.68-19.25L563.68-19.25Q563.68-21.15 563.03-21.98 562.38-22.8 561.18-22.8L561.18-22.8Q559.88-22.8 558.91-21.8 557.93-20.8 557.28-19.23 556.63-17.65 556.31-15.73 555.98-13.8 555.98-11.95ZM580.98-17.35L580.98-17.35Q581.38-17.7 581.6-18.48 581.83-19.25 581.83-19.95L581.83-19.95Q581.83-21.1 581.1-21.85 580.38-22.6 579.08-22.6L579.08-22.6Q577.73-22.6 576.83-21.6 575.93-20.6 575.38-19.07 574.83-17.55 574.6-15.68 574.38-13.8 574.38-12L574.38-12Q574.38-9.35 574.85-7.7 575.33-6.05 576.13-5.13 576.93-4.2 578-3.85 579.08-3.5 580.28-3.5L580.28-3.5Q582.93-3.5 584.75-4.83 586.58-6.15 587.88-8.95L587.88-8.95 589.58-8.95Q588.98-7.1 587.88-5.43 586.78-3.75 585.33-2.48 583.88-1.2 582.18-0.45 580.48 0.3 578.63 0.3L578.63 0.3Q576.88 0.3 575.18-0.3 573.48-0.9 572.13-2.27 570.78-3.65 569.93-5.88 569.08-8.1 569.08-11.35L569.08-11.35Q569.08-13.45 569.45-15.88 569.83-18.3 570.85-20.38 571.88-22.45 573.68-23.85 575.48-25.25 578.33-25.25L578.33-25.25Q581.48-25.25 583.13-23.73 584.78-22.2 584.78-19.25L584.78-19.25Q584.78-18 584.3-17.15 583.83-16.3 582.83-16.3L582.83-16.3Q581.73-16.3 580.98-17.35ZM587.88-25L592.88-25 592.88-8Q592.88-7.5 592.93-6.75 592.98-6 593.2-5.28 593.43-4.55 593.88-4.03 594.33-3.5 595.13-3.5L595.13-3.5Q597.58-3.5 598.73-8.95L598.73-8.95 600.58-8.95Q600.03-5.8 599.18-3.98 598.33-2.15 597.38-1.2 596.43-0.25 595.43 0.03 594.43 0.3 593.63 0.3L593.63 0.3Q591.88 0.3 590.78-0.38 589.68-1.05 589.03-2.1 588.38-3.15 588.13-4.45 587.88-5.75 587.88-6.95L587.88-6.95 587.88-25ZM586.98-32.2L586.98-32.2Q586.98-33.55 587.93-34.55 588.88-35.55 590.28-35.55L590.28-35.55Q591.63-35.55 592.63-34.55 593.63-33.55 593.63-32.2L593.63-32.2Q593.63-30.8 592.63-29.85 591.63-28.9 590.28-28.9L590.28-28.9Q588.88-28.9 587.93-29.85 586.98-30.8 586.98-32.2ZM612.12-25L617.12-25 617.12-8Q617.12-7.5 617.17-6.75 617.22-6 617.45-5.28 617.67-4.55 618.12-4.03 618.57-3.5 619.37-3.5L619.37-3.5Q621.82-3.5 622.97-8.95L622.97-8.95 624.82-8.95Q624.27-5.8 623.42-3.98 622.57-2.15 621.62-1.2 620.67-0.25 619.67 0.03 618.67 0.3 617.87 0.3L617.87 0.3Q616.72 0.3 615.9-0.1 615.07-0.5 614.5-1.15 613.92-1.8 613.57-2.65 613.22-3.5 613.02-4.45L613.02-4.45Q612.27-2.5 610.6-1.1 608.92 0.3 606.52 0.3L606.52 0.3Q605.02 0.3 603.5-0.3 601.97-0.9 600.75-2.27 599.52-3.65 598.75-5.83 597.97-8 597.97-11.15L597.97-11.15Q597.97-13.45 598.5-15.95 599.02-18.45 600.17-20.5 601.32-22.55 603.12-23.9 604.92-25.25 607.47-25.25L607.47-25.25Q608.07-25.25 608.75-25.13 609.42-25 610.05-24.7 610.67-24.4 611.22-23.88 611.77-23.35 612.12-22.6L612.12-22.6 612.12-25ZM607.77-3.5L607.77-3.5Q608.52-3.5 609.3-3.93 610.07-4.35 610.7-5.08 611.32-5.8 611.72-6.8 612.12-7.8 612.12-8.95L612.12-8.95 612.12-20.35Q611.77-21.15 611.05-21.83 610.32-22.5 609.17-22.5L609.17-22.5Q607.57-22.5 606.42-21.43 605.27-20.35 604.57-18.73 603.87-17.1 603.55-15.18 603.22-13.25 603.22-11.5L603.22-11.5Q603.22-7.2 604.4-5.35 605.57-3.5 607.77-3.5ZM622.97-34.3L627.97-35 627.97-8Q627.97-7.5 628.02-6.75 628.07-6 628.3-5.28 628.52-4.55 628.97-4.03 629.42-3.5 630.22-3.5L630.22-3.5Q632.67-3.5 633.82-8.95L633.82-8.95 635.67-8.95Q635.12-5.8 634.27-3.98 633.42-2.15 632.47-1.2 631.52-0.25 630.52 0.03 629.52 0.3 628.72 0.3L628.72 0.3Q626.97 0.3 625.87-0.38 624.77-1.05 624.12-2.1 623.47-3.15 623.22-4.45 622.97-5.75 622.97-6.95L622.97-6.95 622.97-34.3ZM654.27-32.05L659.67-32.8 659.67-3.9Q660.62-3.2 661.49-2.9 662.37-2.6 663.17-2.6L663.17-2.6Q665.12-2.6 666.44-4.03 667.77-5.45 668.62-7.73 669.47-10 669.84-12.8 670.22-15.6 670.22-18.3L670.22-18.3Q670.22-22.95 669.57-26.25 668.92-29.55 667.47-31.65 666.02-33.75 663.72-34.73 661.42-35.7 658.17-35.7L658.17-35.7Q655.92-35.7 653.87-35 651.82-34.3 650.27-32.98 648.72-31.65 647.79-29.73 646.87-27.8 646.87-25.35L646.87-25.35Q646.87-23.9 647.19-22.9 647.52-21.9 647.94-21.25 648.37-20.6 648.84-20.23 649.32-19.85 649.62-19.65L649.62-19.65Q646.57-19.65 644.82-21.05 643.07-22.45 643.07-25.75L643.07-25.75Q643.07-28.05 644.27-30.2 645.47-32.35 647.59-33.95 649.72-35.55 652.59-36.52 655.47-37.5 658.87-37.5L658.87-37.5Q663.67-37.5 666.97-35.88 670.27-34.25 672.32-31.58 674.37-28.9 675.27-25.45 676.17-22 676.17-18.35L676.17-18.35Q676.17-14.8 675.44-11.4 674.72-8 673.44-5.33 672.17-2.65 670.42-1 668.67 0.65 666.57 0.65L666.57 0.65Q665.07 0.65 663.37-0.05 661.67-0.75 659.67-2.25L659.67-2.25 659.67 0 654.27 0 654.27-32.05ZM693.16-25L698.16-25 698.16-8Q698.16-7.5 698.21-6.75 698.26-6 698.49-5.28 698.71-4.55 699.16-4.03 699.61-3.5 700.41-3.5L700.41-3.5Q702.86-3.5 704.01-8.95L704.01-8.95 705.86-8.95Q705.31-5.8 704.46-3.98 703.61-2.15 702.66-1.2 701.71-0.25 700.71 0.03 699.71 0.3 698.91 0.3L698.91 0.3Q697.76 0.3 696.94-0.1 696.11-0.5 695.54-1.15 694.96-1.8 694.61-2.65 694.26-3.5 694.06-4.45L694.06-4.45Q693.31-2.5 691.64-1.1 689.96 0.3 687.56 0.3L687.56 0.3Q686.06 0.3 684.54-0.3 683.01-0.9 681.79-2.27 680.56-3.65 679.79-5.83 679.01-8 679.01-11.15L679.01-11.15Q679.01-13.45 679.54-15.95 680.06-18.45 681.21-20.5 682.36-22.55 684.16-23.9 685.96-25.25 688.51-25.25L688.51-25.25Q689.11-25.25 689.79-25.13 690.46-25 691.09-24.7 691.71-24.4 692.26-23.88 692.81-23.35 693.16-22.6L693.16-22.6 693.16-25ZM688.81-3.5L688.81-3.5Q689.56-3.5 690.34-3.93 691.11-4.35 691.74-5.08 692.36-5.8 692.76-6.8 693.16-7.8 693.16-8.95L693.16-8.95 693.16-20.35Q692.81-21.15 692.09-21.83 691.36-22.5 690.21-22.5L690.21-22.5Q688.61-22.5 687.46-21.43 686.31-20.35 685.61-18.73 684.91-17.1 684.59-15.18 684.26-13.25 684.26-11.5L684.26-11.5Q684.26-7.2 685.44-5.35 686.61-3.5 688.81-3.5ZM715.86-25L720.86-25 720.86-1.05Q722.11-1.45 723.09-1.95 724.06-2.45 724.79-3.3 725.51-4.15 725.99-5.5 726.46-6.85 726.71-8.95L726.71-8.95 728.56-8.95Q728.16-6.3 727.54-4.63 726.91-2.95 725.99-1.93 725.06-0.9 723.79-0.33 722.51 0.25 720.86 0.75L720.86 0.75 720.86 3.95Q720.86 6.3 720.36 7.93 719.86 9.55 718.99 10.58 718.11 11.6 716.99 12.05 715.86 12.5 714.61 12.5L714.61 12.5Q712.11 12.5 710.71 11.08 709.31 9.65 709.31 7.6L709.31 7.6Q709.31 6.3 709.89 5.25 710.46 4.2 711.39 3.33 712.31 2.45 713.49 1.78 714.66 1.1 715.86 0.6L715.86 0.6 715.86-2.55Q714.86-1.1 713.59-0.4 712.31 0.3 711.01 0.3L711.01 0.3Q709.56 0.3 708.26-0.1 706.96-0.5 706.01-1.43 705.06-2.35 704.51-3.83 703.96-5.3 703.96-7.45L703.96-7.45 703.96-25 708.96-25 708.96-8Q708.96-5.55 709.81-4.53 710.66-3.5 711.96-3.5L711.96-3.5Q712.66-3.5 713.36-3.85 714.06-4.2 714.61-4.88 715.16-5.55 715.51-6.5 715.86-7.45 715.86-8.7L715.86-8.7 715.86-25ZM713.66 9.9L713.66 9.9Q715.01 9.9 715.44 8.88 715.86 7.85 715.86 6.1L715.86 6.1 715.86 2.6Q713.36 3.75 712.31 4.88 711.26 6 711.26 7.4L711.26 7.4Q711.26 8.55 711.89 9.22 712.51 9.9 713.66 9.9ZM733.16-11.55L730.51-11.55 729.11-35 734.71-35 733.16-11.55ZM728.66-3.05L728.66-3.05Q728.66-4.4 729.61-5.4 730.56-6.4 731.96-6.4L731.96-6.4Q733.31-6.4 734.31-5.4 735.31-4.4 735.31-3.05L735.31-3.05Q735.31-1.65 734.31-0.7 733.31 0.25 731.96 0.25L731.96 0.25Q730.56 0.25 729.61-0.7 728.66-1.65 728.66-3.05ZM739.96-28.05L741.01-37.5 745.26-37.5 742.71-28.05 739.96-28.05ZM747.91-28.05L748.96-37.5 753.21-37.5 750.66-28.05 747.91-28.05Z" opacity="1" transform="matrix(1,0,0,1,0,0)" fill="#ca3433" class="undefined-text-1" data-fill-palette-color="secondary" id="text-1"></path></svg></g></svg></g></svg></g></svg></g><g><svg viewBox="0 0 226.15800780483872 226.15800780483872" height="226.15800780483872" width="226.15800780483872"><g><svg></svg></g><g id="icon-0"><svg viewBox="0 0 226.15800780483872 226.15800780483872" height="226.15800780483872" width="226.15800780483872"><g><path d="M0 113.079c0-62.452 50.627-113.079 113.079-113.079 62.452 0 113.079 50.627 113.079 113.079 0 62.452-50.627 113.079-113.079 113.079-62.452 0-113.079-50.627-113.079-113.079zM113.079 218.989c58.493 0 105.91-47.418 105.91-105.91 0-58.493-47.418-105.91-105.91-105.91-58.493 0-105.91 47.418-105.91 105.91 0 58.493 47.418 105.91 105.91 105.91z" data-fill-palette-color="accent" fill="#ca3433" stroke="transparent"></path></g><g transform="matrix(1,0,0,1,48.71735515688353,53.91858178614289)"><svg viewBox="0 0 128.72329749107166 118.32084423255294" height="118.32084423255294" width="128.72329749107166"><g><svg xmlns:x="http://ns.adobe.com/Extensibility/1.0/" xmlns:i="http://ns.adobe.com/AdobeIllustrator/10.0/" xmlns:graph="http://ns.adobe.com/Graphs/1.0/" xmlns="http://www.w3.org/2000/svg" xmlns:xlink="http://www.w3.org/1999/xlink" version="1.1" x="0" y="0" viewBox="0 2 32 29.413999557495117" style="enable-background:new 0 0 32 32;" xml:space="preserve" height="118.32084423255294" width="128.72329749107166" class="icon-s-0" data-fill-palette-color="accent" id="s-0"><g fill="#ca3433" data-fill-palette-color="accent"><g fill="#ca3433" data-fill-palette-color="accent"><path d="M10 31.414L5.586 27H4c-2.206 0-4-1.794-4-4V6c0-2.206 1.794-4 4-4h24c2.206 0 4 1.794 4 4v17c0 2.206-1.794 4-4 4H14.414L10 31.414zM4 4C2.897 4 2 4.897 2 6v17c0 1.103 0.897 2 2 2h2.414L10 28.586 13.586 25H28c1.103 0 2-0.897 2-2V6c0-1.103-0.897-2-2-2H4z" fill="#ca3433" data-fill-palette-color="accent"></path></g><g fill="#ca3433" data-fill-palette-color="accent"><path d="M16 21.414l-5.874-5.875C9.4 14.814 9 13.85 9 12.823c0-1.027 0.4-1.992 1.128-2.718 1.446-1.451 3.981-1.451 5.432 0l0.44 0.44 0.44-0.44c1.449-1.452 3.985-1.453 5.435 0.001C22.6 10.832 23 11.796 23 12.823c0 1.026-0.4 1.991-1.128 2.717L16 21.414zM12.842 10.98c-0.491 0-0.953 0.191-1.3 0.539C11.191 11.869 11 12.331 11 12.823s0.191 0.954 0.54 1.301L16 18.586l4.458-4.46C20.809 13.776 21 13.314 21 12.823s-0.191-0.954-0.54-1.302c-0.699-0.7-1.911-0.696-2.604-0.001L16 13.375l-1.854-1.855C13.797 11.172 13.334 10.98 12.842 10.98z" fill="#ca3433" data-fill-palette-color="accent"></path></g></g></svg></g></svg></g></svg></g></svg></g></svg></g><defs></defs></svg><rect width="395.52" height="135.69263030987383" fill="none" stroke="none" visibility="hidden"></rect></g></svg></g></svg>